# xmcd CD database file
#
# Track frame offsets:
#	150
#	13647
#	27594
#	39087
#	52447
#	65028
#	77655
#	93389
#	106556
#	120207
#	132798
#	146255
#	159084
#	171786
#	184531
#	197985
#	211007
#	224379
#	238205
#	252870
#	266175
#	278408
#
# Disc length: 3875 seconds
#
# Revision: 0
# Processed by: cddbd v1.5.1PL2 Copyright (c) Steve Scherf et al.
# Submitted via: CDex 1.51
#
DISCID=2c0f2116
DTITLE=Sonn Boy Williamson - Good Morning Littel Schoolgirl
DYEAR=1900
DGENRE=Blues
TTITLE0=Good Morning Littel Schoolgirl
TTITLE1=Blue Bird Blues
TTITLE2=Got The Bottle Up And Go
TTITLE3=Sugar Mama Blues
TTITLE4=Early in the Morning
TTITLE5=Black Gal Blues
TTITLE6=Decoration Blues
TTITLE7=Whiskey Headed Woman Blues
TTITLE8=Lord, Oh Lord
TTITLE9=Good Gravy
TTITLE10=T.B. Blues
TTITLE11=Tell Me Baby
TTITLE12=I Been Dealing With The Devil
TTITLE13=Welfare Store Blues
TTITLE14=My Little Machine
TTITLE15=Jivin' The Blues
TTITLE16=Shotgun Blues
TTITLE17=Million Years Blues
TTITLE18=Sloppy Drunk Blues
TTITLE19=You Got To Step Back
TTITLE20=Ground Hog Blues
TTITLE21=My Black Nama
EXTD=
EXTT0=
EXTT1=
EXTT2=
EXTT3=
EXTT4=
EXTT5=
EXTT6=
EXTT7=
EXTT8=
EXTT9=
EXTT10=
EXTT11=
EXTT12=
EXTT13=
EXTT14=
EXTT15=
EXTT16=
EXTT17=
EXTT18=
EXTT19=
EXTT20=
EXTT21=
PLAYORDER=
